<?xml version="1.0" encoding="UTF-8" standalone="no"?>
<!-- Created with Inkscape (http://www.inkscape.org/) -->

<svg
   xmlns:dc="http://purl.org/dc/elements/1.1/"
   xmlns:cc="http://creativecommons.org/ns#"
   xmlns:rdf="http://www.w3.org/1999/02/22-rdf-syntax-ns#"
   xmlns:svg="http://www.w3.org/2000/svg"
   xmlns="http://www.w3.org/2000/svg"
   xmlns:sodipodi="http://sodipodi.sourceforge.net/DTD/sodipodi-0.dtd"
   xmlns:inkscape="http://www.inkscape.org/namespaces/inkscape"
   version="1.1"
   id="svg2"
   xml:space="preserve"
   width="276.62592"
   height="96.601463"
   viewBox="0 0 276.62592 96.601463"
   sodipodi:docname="logo_mobile.svg"
   inkscape:version="0.91 r13725"><metadata
     id="metadata8"><rdf:RDF><cc:Work
         rdf:about=""><dc:format>image/svg+xml</dc:format><dc:type
           rdf:resource="http://purl.org/dc/dcmitype/StillImage" /><dc:title></dc:title></cc:Work></rdf:RDF></metadata><defs
     id="defs6"><clipPath
       clipPathUnits="userSpaceOnUse"
       id="clipPath18"><path
         d="m 0,72.451 326.153,0 L 326.153,0 0,0 Z"
         id="path16"
         inkscape:connector-curvature="0" /></clipPath></defs><sodipodi:namedview
     pagecolor="#ffffff"
     bordercolor="#666666"
     borderopacity="1"
     objecttolerance="10"
     gridtolerance="10"
     guidetolerance="10"
     inkscape:pageopacity="0"
     inkscape:pageshadow="2"
     inkscape:window-width="1594"
     inkscape:window-height="810"
     id="namedview4"
     showgrid="false"
     inkscape:zoom="0.82783234"
     inkscape:cx="217.43586"
     inkscape:cy="48.300732"
     inkscape:window-x="65"
     inkscape:window-y="24"
     inkscape:window-maximized="0"
     inkscape:current-layer="g10"
     fit-margin-top="0"
     fit-margin-left="0"
     fit-margin-right="0"
     fit-margin-bottom="0" /><g
     id="g10"
     inkscape:groupmode="layer"
     inkscape:label="Vector Smart Object"
     transform="matrix(1.3333333,0,0,-1.3333333,5.3333332e-4,96.601064)"><g
       id="g20"
       transform="translate(48.2979,38.6398)"><path
         d="M 0,0 0.981,8.692 -7.416,9.64 c 1.11,-2.691 1.976,-6.417 1.976,-6.417 0,0 3.138,-1.58 5.44,-3.223 m -1.336,-17.299 7.105,4.54 -4.426,7.164 c -1.376,-2.527 -3.597,-5.432 -3.597,-5.432 0,0 0.733,-3.423 0.918,-6.272 m -14.117,-9.847 7.808,-2.816 2.712,7.996 c -2.768,-0.455 -6.242,-0.488 -6.242,-0.488 0,0 -2.198,-2.764 -4.278,-4.692 m -16.426,5.206 2.723,-8.022 7.908,2.853 c -2.065,1.928 -4.237,4.655 -4.237,4.655 0,0 -3.6,0.033 -6.394,0.514 m -6.187,16.467 -4.504,-7.286 7.238,-4.626 c 0.178,2.865 0.926,6.358 0.926,6.358 0,0 -2.295,2.997 -3.66,5.554 m 8.829,15.127 -8.544,-0.962 0.988,-8.785 c 2.316,1.677 5.573,3.316 5.573,3.316 0,0 0.869,3.745 1.983,6.431 m 10.839,8.585 -6.084,-6.25 c 2.749,-0.792 6.154,-2.423 6.154,-2.423 0,0 3.308,1.591 6.039,2.39 z"
         style="fill:#6f5c4c;fill-opacity:1;fill-rule:evenodd;stroke:none"
         id="path22"
         inkscape:connector-curvature="0" /></g><g
       id="g24"
       transform="translate(46.5846,49.5597)"><path
         d="m 0,0 -3.53,10.209 -9.829,-3.626 c 2.661,-2.368 5.607,-6.028 5.607,-6.028 0,0 4.322,-0.011 7.752,-0.555 m 7.708,-19.979 5.477,9.004 -8.722,5.502 c -0.182,-3.578 -1.11,-8.045 -1.11,-8.045 0,0 2.634,-3.4 4.355,-6.461 m -10.45,-18.813 10.169,1.214 -1.236,10.406 c -2.835,-2.05 -6.676,-4.023 -6.676,-4.023 0,0 -0.977,-4.296 -2.257,-7.597 m -21.011,-3.363 7.286,-7.405 7.268,7.579 c -3.316,0.991 -7.179,2.816 -7.179,2.816 0,0 -4.019,-1.969 -7.375,-2.99 m -15.623,14.861 -1.129,-10.609 10.495,-1.111 c -1.321,3.283 -2.35,7.586 -2.35,7.586 0,0 -4.141,2.054 -7.016,4.134 m 1.772,21.743 -8.981,-5.831 5.766,-9.218 c 1.68,3.153 4.425,6.79 4.425,6.79 0,0 -1.017,4.648 -1.21,8.259 m 7.475,15.579 -3.434,-10.339 c 3.475,0.655 8.119,0.737 8.119,0.737 0,0 2.834,3.611 5.443,6.02 z"
         style="fill:#ff0000;fill-opacity:1;fill-rule:evenodd;stroke:none"
         id="path26"
         inkscape:connector-curvature="0" /></g><g
       id="g28"
       transform="translate(39.7277,42.2958)"><path
         d="M 0,0 -2.083,6.039 -7.889,3.893 C -6.32,2.49 -4.581,0.326 -4.581,0.326 -4.581,0.326 -2.028,0.322 0,0 m 4.552,-11.815 3.234,5.324 -5.151,3.253 C 2.527,-5.355 1.98,-7.997 1.98,-7.997 c 0,0 1.554,-2.009 2.572,-3.818 m -6.173,-11.128 6.006,0.718 -0.729,6.154 c -1.673,-1.21 -3.945,-2.379 -3.945,-2.379 0,0 -0.573,-2.542 -1.332,-4.493 m -12.407,-1.99 4.303,-4.378 4.293,4.481 c -1.961,0.589 -4.241,1.665 -4.241,1.665 0,0 -2.376,-1.162 -4.355,-1.768 m -9.229,8.792 -0.666,-6.276 6.198,-0.659 c -0.781,1.943 -1.388,4.489 -1.388,4.489 0,0 -2.442,1.214 -4.144,2.446 m 1.047,12.855 -5.303,-3.445 3.405,-5.454 c 0.991,1.865 2.616,4.018 2.616,4.018 0,0 -0.603,2.746 -0.718,4.881 m 4.415,9.218 -2.028,-6.117 c 2.054,0.389 4.796,0.433 4.796,0.433 0,0 1.672,2.139 3.215,3.563 z"
         style="fill:#ff9a00;fill-opacity:1;fill-rule:evenodd;stroke:none"
         id="path30"
         inkscape:connector-curvature="0" /></g><g
       id="g32"
       transform="translate(19.8416,70.9592)"><path
         d="m 0,0 c -1.003,0 -1.406,-0.585 -1.406,-1.78 0,-1.302 0.322,-1.843 1.399,-1.843 0.366,0 0.906,0.078 0.906,0.078 l -0.018,0.411 c 0,0 -0.507,-0.056 -0.77,-0.056 -0.81,0 -0.999,0.455 -0.999,1.41 0,0.881 0.244,1.273 0.999,1.273 0.263,0 0.762,-0.055 0.762,-0.055 l 0.011,0.466 C 0.884,-0.096 0.374,0 0,0"
         style="fill:#ff0000;fill-opacity:1;fill-rule:evenodd;stroke:none"
         id="path34"
         inkscape:connector-curvature="0" /></g><g
       id="g36"
       transform="translate(22.7983,67.7621)"><path
         d="m 0,0 c -0.692,0 -0.907,0.507 -0.907,1.162 l 2.276,0 0.026,0.329 c 0,1.244 -0.485,1.68 -1.38,1.68 -0.907,0 -1.447,-0.51 -1.447,-1.846 0,-1.103 0.355,-1.758 1.395,-1.758 0.599,0 1.31,0.107 1.31,0.107 L 1.258,0.067 C 1.258,0.067 0.507,0 0,0 m -0.914,1.506 c 0.007,0.91 0.359,1.321 0.929,1.321 0.577,0 0.862,-0.385 0.862,-1.321 z"
         style="fill:#ff0000;fill-opacity:1;fill-rule:evenodd;stroke:none"
         id="path38"
         inkscape:connector-curvature="0" /></g><g
       id="g40"
       transform="translate(27.5644,69.8158)"><path
         d="m 0,0 c 0,0.777 -0.359,1.143 -1.103,1.143 -0.555,0 -1.373,-0.14 -1.373,-0.14 l 0.023,-0.459 c 0,0 0.743,0.092 1.328,0.092 0.396,0 0.614,-0.196 0.614,-0.629 l 0,-0.285 -1.062,-0.096 c -0.692,-0.052 -1.073,-0.336 -1.073,-1.065 0,-0.707 0.411,-1.033 0.996,-1.033 0.647,0 1.228,0.211 1.228,0.211 0.189,-0.141 0.415,-0.211 0.811,-0.211 l 0.029,0.344 C 0.204,-2.091 0.063,-2.006 0,-1.765 Z m -0.511,-0.648 0,-1.247 c 0,0 -0.529,-0.233 -1.076,-0.233 -0.315,0 -0.541,0.304 -0.541,0.707 0,0.389 0.189,0.666 0.622,0.707 z"
         style="fill:#ff0000;fill-opacity:1;fill-rule:evenodd;stroke:none"
         id="path42"
         inkscape:connector-curvature="0" /></g><path
       d="m 28.741,67.414 0.511,0 0,4.962 -0.511,0 z"
       style="fill:#ff0000;fill-opacity:1;fill-rule:evenodd;stroke:none"
       id="path44"
       inkscape:connector-curvature="0" /><g
       id="g46"
       transform="translate(32.893,69.8158)"><path
         d="m 0,0 c 0,0.777 -0.359,1.143 -1.103,1.143 -0.555,0 -1.373,-0.14 -1.373,-0.14 l 0.023,-0.459 c 0,0 0.743,0.092 1.328,0.092 0.396,0 0.614,-0.196 0.614,-0.629 l 0,-0.285 -1.062,-0.096 c -0.692,-0.052 -1.073,-0.336 -1.073,-1.065 0,-0.707 0.411,-1.033 0.996,-1.033 0.647,0 1.228,0.211 1.228,0.211 0.189,-0.141 0.415,-0.211 0.811,-0.211 l 0.029,0.344 C 0.204,-2.091 0.063,-2.006 0,-1.765 Z m -0.511,-0.648 0,-1.247 c 0,0 -0.529,-0.233 -1.076,-0.233 -0.315,0 -0.541,0.304 -0.541,0.707 0,0.389 0.189,0.666 0.622,0.707 z"
         style="fill:#ff0000;fill-opacity:1;fill-rule:evenodd;stroke:none"
         id="path48"
         inkscape:connector-curvature="0" /></g><path
       d="m 34.07,67.414 0.511,0 0,4.962 -0.511,0 z"
       style="fill:#ff0000;fill-opacity:1;fill-rule:evenodd;stroke:none"
       id="path50"
       inkscape:connector-curvature="0" /><g
       id="g52"
       transform="translate(37.489,70.4264)"><path
         d="m 0,0 0,0.433 -1.04,0 0,1.073 -0.518,0 0,-1.073 -0.477,0 0,-0.433 0.477,0 0,-1.843 c 0,-0.936 0.278,-1.247 0.962,-1.247 0.244,0 0.644,0.063 0.644,0.063 L 0.022,-2.62 c 0,0 -0.37,-0.037 -0.562,-0.037 -0.415,0 -0.5,0.263 -0.5,0.996 l 0,1.661 z"
         style="fill:#ff0000;fill-opacity:1;fill-rule:evenodd;stroke:none"
         id="path54"
         inkscape:connector-curvature="0" /></g><g
       id="g56"
       transform="translate(40.7083,69.8158)"><path
         d="m 0,0 c 0,0.777 -0.359,1.143 -1.103,1.143 -0.555,0 -1.373,-0.14 -1.373,-0.14 l 0.023,-0.459 c 0,0 0.743,0.092 1.328,0.092 0.396,0 0.614,-0.196 0.614,-0.629 l 0,-0.285 -1.062,-0.096 c -0.692,-0.052 -1.073,-0.336 -1.073,-1.065 0,-0.707 0.411,-1.033 0.996,-1.033 0.647,0 1.228,0.211 1.228,0.211 0.189,-0.141 0.415,-0.211 0.811,-0.211 l 0.029,0.344 C 0.204,-2.091 0.063,-2.006 0,-1.765 Z m -0.511,-0.648 0,-1.247 c 0,0 -0.529,-0.233 -1.076,-0.233 -0.315,0 -0.541,0.304 -0.541,0.707 0,0.389 0.189,0.666 0.622,0.707 z m -1.78,3.283 c 0.026,-0.566 0.415,-0.951 1.103,-0.951 0.692,0 1.077,0.385 1.103,0.951 l -0.518,0 C -0.618,2.324 -0.818,2.117 -1.188,2.117 c -0.362,0 -0.57,0.207 -0.585,0.518 z"
         style="fill:#ff0000;fill-opacity:1;fill-rule:evenodd;stroke:none"
         id="path58"
         inkscape:connector-curvature="0" /></g><g
       id="g60"
       transform="translate(19.7972,64.7425)"><path
         d="m 0,0 c -1.003,0 -1.406,-0.585 -1.406,-1.78 0,-1.302 0.322,-1.843 1.399,-1.843 0.366,0 0.906,0.078 0.906,0.078 l -0.018,0.411 c 0,0 -0.507,-0.056 -0.77,-0.056 -0.81,0 -0.999,0.455 -0.999,1.41 0,0.881 0.244,1.273 0.999,1.273 0.263,0 0.762,-0.055 0.762,-0.055 l 0.011,0.466 C 0.884,-0.096 0.374,0 0,0"
         style="fill:#52432e;fill-opacity:1;fill-rule:evenodd;stroke:none"
         id="path62"
         inkscape:connector-curvature="0" /></g><g
       id="g64"
       transform="translate(23.9676,63.5991)"><path
         d="m 0,0 c 0,0.777 -0.359,1.143 -1.103,1.143 -0.555,0 -1.373,-0.14 -1.373,-0.14 l 0.023,-0.459 c 0,0 0.743,0.092 1.328,0.092 0.396,0 0.614,-0.196 0.614,-0.629 l 0,-0.285 -1.062,-0.096 c -0.692,-0.052 -1.073,-0.336 -1.073,-1.065 0,-0.707 0.411,-1.033 0.996,-1.033 0.647,0 1.228,0.211 1.228,0.211 0.189,-0.141 0.415,-0.211 0.811,-0.211 l 0.029,0.344 C 0.204,-2.091 0.063,-2.006 0,-1.765 Z m -0.511,-0.648 0,-1.247 c 0,0 -0.529,-0.233 -1.076,-0.233 -0.315,0 -0.541,0.304 -0.541,0.707 0,0.389 0.189,0.666 0.622,0.707 z"
         style="fill:#52432e;fill-opacity:1;fill-rule:evenodd;stroke:none"
         id="path66"
         inkscape:connector-curvature="0" /></g><g
       id="g68"
       transform="translate(25.2295,59.6841)"><path
         d="m 0,0 0.518,0 0,1.495 c 0.1,-0.019 0.4,-0.067 0.725,-0.067 1.051,0 1.495,0.518 1.495,1.854 0,1.159 -0.388,1.762 -1.236,1.762 -0.518,0 -0.984,-0.285 -0.984,-0.285 l 0,0.218 -0.518,0 z m 1.432,4.611 c 0.514,0 0.788,-0.5 0.788,-1.314 0,-0.958 -0.251,-1.436 -1.003,-1.436 -0.322,0 -0.606,0.052 -0.699,0.071 l 0,2.394 c 0,0 0.455,0.285 0.914,0.285"
         style="fill:#52432e;fill-opacity:1;fill-rule:evenodd;stroke:none"
         id="path70"
         inkscape:connector-curvature="0" /></g><path
       d="m 28.874,61.198 0.511,0 0,3.452 -0.511,0 z m 0,4.185 0.511,0 0,0.603 -0.511,0 z"
       style="fill:#52432e;fill-opacity:1;fill-rule:evenodd;stroke:none"
       id="path72"
       inkscape:connector-curvature="0" /><g
       id="g74"
       transform="translate(32.2048,64.2097)"><path
         d="m 0,0 0,0.433 -1.04,0 0,1.073 -0.518,0 0,-1.073 -0.477,0 0,-0.433 0.477,0 0,-1.843 c 0,-0.936 0.278,-1.247 0.962,-1.247 0.244,0 0.644,0.063 0.644,0.063 L 0.022,-2.62 c 0,0 -0.37,-0.037 -0.562,-0.037 -0.415,0 -0.5,0.263 -0.5,0.996 l 0,1.661 z"
         style="fill:#52432e;fill-opacity:1;fill-rule:evenodd;stroke:none"
         id="path76"
         inkscape:connector-curvature="0" /></g><g
       id="g78"
       transform="translate(35.4241,63.5991)"><path
         d="m 0,0 c 0,0.777 -0.359,1.143 -1.103,1.143 -0.555,0 -1.373,-0.14 -1.373,-0.14 l 0.023,-0.459 c 0,0 0.743,0.092 1.328,0.092 0.396,0 0.614,-0.196 0.614,-0.629 l 0,-0.285 -1.062,-0.096 c -0.692,-0.052 -1.073,-0.336 -1.073,-1.065 0,-0.707 0.411,-1.033 0.996,-1.033 0.647,0 1.228,0.211 1.228,0.211 0.189,-0.141 0.415,-0.211 0.811,-0.211 l 0.029,0.344 C 0.204,-2.091 0.063,-2.006 0,-1.765 Z m -0.511,-0.648 0,-1.247 c 0,0 -0.529,-0.233 -1.076,-0.233 -0.315,0 -0.541,0.304 -0.541,0.707 0,0.389 0.189,0.666 0.622,0.707 z"
         style="fill:#52432e;fill-opacity:1;fill-rule:evenodd;stroke:none"
         id="path80"
         inkscape:connector-curvature="0" /></g><path
       d="m 36.601,61.198 0.511,0 0,4.962 -0.511,0 z"
       style="fill:#52432e;fill-opacity:1;fill-rule:evenodd;stroke:none"
       id="path82"
       inkscape:connector-curvature="0" /><g
       id="g84"
       transform="translate(40.7527,63.5991)"><path
         d="m 0,0 c 0,0.777 -0.359,1.143 -1.103,1.143 -0.555,0 -1.373,-0.14 -1.373,-0.14 l 0.023,-0.459 c 0,0 0.743,0.092 1.328,0.092 0.396,0 0.614,-0.196 0.614,-0.629 l 0,-0.285 -1.062,-0.096 c -0.692,-0.052 -1.073,-0.336 -1.073,-1.065 0,-0.707 0.411,-1.033 0.996,-1.033 0.647,0 1.228,0.211 1.228,0.211 0.189,-0.141 0.415,-0.211 0.811,-0.211 l 0.029,0.344 C 0.204,-2.091 0.063,-2.006 0,-1.765 Z m -0.511,-0.648 0,-1.247 c 0,0 -0.529,-0.233 -1.076,-0.233 -0.315,0 -0.541,0.304 -0.541,0.707 0,0.389 0.189,0.666 0.622,0.707 z m -1.78,3.283 c 0.026,-0.566 0.415,-0.955 1.103,-0.955 0.692,0 1.077,0.389 1.103,0.955 l -0.518,0 C -0.618,2.324 -0.818,2.117 -1.188,2.117 c -0.362,0 -0.57,0.207 -0.584,0.518 z"
         style="fill:#52432e;fill-opacity:1;fill-rule:evenodd;stroke:none"
         id="path86"
         inkscape:connector-curvature="0" /></g><g
       id="g88"
       transform="translate(74.979245,17.494794)"><path
         d="m 0,0 c 0,0 1.844,-2.127 4.312,-2.127 1.106,0 1.957,0.454 1.957,1.418 0,2.042 -7.63,2.014 -7.63,6.694 0,2.894 2.609,4.227 5.616,4.227 1.957,0 5.077,-0.652 5.077,-3.007 l 0,-1.503 -3.177,0 0,0.709 c 0,0.681 -1.021,1.021 -1.815,1.021 -1.277,0 -2.155,-0.454 -2.155,-1.305 0,-2.269 7.686,-1.815 7.686,-6.638 0,-2.722 -2.411,-4.425 -5.559,-4.425 -3.971,0 -6.014,2.582 -6.014,2.582 z"
         style="fill:#ff0000;fill-opacity:1;fill-rule:nonzero;stroke:none"
         id="path90"
         inkscape:connector-curvature="0" /></g><g
       id="g92"
       transform="translate(88.197045,23.678894)"><path
         d="m 0,0 c 0,0.425 -0.227,0.624 -0.624,0.624 l -1.135,0 0,3.064 3.319,0 c 1.277,0 1.901,-0.596 1.901,-1.618 l 0,-0.425 C 3.461,1.333 3.433,1.021 3.433,1.021 l 0.056,0 c 0.681,1.418 2.411,3.007 4.68,3.007 2.185,0 3.602,-1.021 4.227,-2.979 l 0.056,0 c 0.767,1.56 2.639,2.979 4.937,2.979 3.007,0 4.736,-1.702 4.736,-5.503 l 0,-5.645 c 0,-0.397 0.228,-0.624 0.624,-0.624 l 1.106,0 0,-3.035 -3.403,0 c -1.362,0 -1.929,0.567 -1.929,1.928 l 0,6.695 c 0,1.645 -0.312,2.893 -1.986,2.893 -1.787,0 -3.063,-1.503 -3.461,-3.319 -0.17,-0.567 -0.226,-1.163 -0.226,-1.843 l 0,-6.354 -3.603,0 0,8.623 c 0,1.56 -0.226,2.893 -1.957,2.893 C 5.475,0.737 4.255,-0.766 3.801,-2.61 3.659,-3.177 3.574,-3.773 3.574,-4.425 l 0,-6.354 -3.574,0 z"
         style="fill:#ff0000;fill-opacity:1;fill-rule:nonzero;stroke:none"
         id="path94"
         inkscape:connector-curvature="0" /></g><g
       id="g96"
       transform="translate(119.34154,15.367394)"><path
         d="m 0,0 c 1.929,0 3.291,2.042 3.291,3.801 l 0,0.341 -0.624,0 C 0.794,4.142 -2.184,3.886 -2.184,1.872 -2.184,0.908 -1.475,0 0,0 m 2.78,6.609 0.454,0 0,0.114 c 0,2.07 -0.823,2.837 -2.667,2.837 -0.652,0 -1.928,-0.171 -1.928,-0.965 l 0,-0.766 -3.348,0 0,1.532 c 0,2.695 3.802,2.978 5.305,2.978 4.822,0 6.24,-2.524 6.24,-5.758 l 0,-5.39 c 0,-0.397 0.227,-0.624 0.624,-0.624 l 1.135,0 0,-3.035 -3.234,0 c -1.333,0 -1.843,0.738 -1.843,1.589 0,0.368 0.028,0.624 0.028,0.624 l -0.057,0 c 0,0 -1.106,-2.553 -4.368,-2.553 -2.582,0 -4.935,1.617 -4.935,4.51 0,4.539 6.24,4.907 8.594,4.907"
         style="fill:#ff0000;fill-opacity:1;fill-rule:nonzero;stroke:none"
         id="path98"
         inkscape:connector-curvature="0" /></g><g
       id="g100"
       transform="translate(130.82884,23.678894)"><path
         d="m 0,0 c 0,0.425 -0.227,0.624 -0.624,0.624 l -1.135,0 0,3.064 3.29,0 c 1.278,0 1.93,-0.54 1.93,-1.759 l 0,-0.851 C 3.461,0.539 3.404,0.17 3.404,0.17 l 0.057,0 c 0.652,2.071 2.383,3.716 4.595,3.716 0.312,0 0.652,-0.057 0.652,-0.057 l 0,-3.545 c 0,0 -0.368,0.056 -0.879,0.056 C 6.297,0.34 4.538,-0.539 3.886,-2.695 3.688,-3.404 3.574,-4.198 3.574,-5.049 l 0,-5.73 -3.574,0 z"
         style="fill:#ff0000;fill-opacity:1;fill-rule:nonzero;stroke:none"
         id="path102"
         inkscape:connector-curvature="0" /></g><g
       id="g104"
       transform="translate(142.57104,24.501094)"><path
         d="m 0,0 -1.872,0 0,2.865 1.957,0 0,3.943 3.518,0 0,-3.943 3.29,0 0,-2.865 -3.29,0 0,-5.843 c 0,-2.383 1.872,-2.723 2.865,-2.723 0.396,0 0.652,0.056 0.652,0.056 l 0,-3.148 c 0,0 -0.454,-0.085 -1.106,-0.085 C 4,-11.743 0,-11.148 0,-6.297 Z"
         style="fill:#ff0000;fill-opacity:1;fill-rule:nonzero;stroke:none"
         id="path106"
         inkscape:connector-curvature="0" /></g><g
       id="g108"
       transform="translate(166.99394,27.706694)"><path
         d="m 0,0 c 1.872,0 5.247,-0.766 5.247,-3.262 l 0,-1.702 -3.177,0 0,0.794 c 0,0.795 -1.191,1.135 -2.07,1.135 -2.497,0 -4.283,-1.901 -4.283,-4.51 0,-2.951 2.183,-4.454 4.51,-4.454 2.467,0 4.283,1.957 4.283,1.957 l 1.504,-2.496 c 0,0 -2.157,-2.609 -6.1,-2.609 -4.765,0 -7.828,3.375 -7.828,7.573 C -7.914,-3.489 -4.965,0 0,0"
         style="fill:#ff0000;fill-opacity:1;fill-rule:nonzero;stroke:none"
         id="path110"
         inkscape:connector-curvature="0" /></g><path
       d="m 176.06954,33.040194 3.121,0 0,-3.319 -3.121,0 z m -0.17,-9.361 c 0,0.425 -0.227,0.624 -0.624,0.624 l -1.135,0 0,3.063 3.432,0 c 1.333,0 1.901,-0.596 1.901,-1.929 l 0,-8.878 c 0,-0.397 0.226,-0.624 0.624,-0.624 l 1.135,0 0,-3.036 -3.433,0 c -1.333,0 -1.9,0.568 -1.9,1.929 z"
       style="fill:#ff0000;fill-opacity:1;fill-rule:nonzero;stroke:none"
       id="path112"
       inkscape:connector-curvature="0" /><g
       id="g114"
       transform="translate(184.32304,24.501094)"><path
         d="m 0,0 -1.872,0 0,2.865 1.957,0 0,3.943 3.518,0 0,-3.943 3.29,0 0,-2.865 -3.29,0 0,-5.843 c 0,-2.383 1.872,-2.723 2.865,-2.723 0.396,0 0.652,0.056 0.652,0.056 l 0,-3.148 c 0,0 -0.454,-0.085 -1.106,-0.085 C 4,-11.743 0,-11.148 0,-6.297 Z"
         style="fill:#ff0000;fill-opacity:1;fill-rule:nonzero;stroke:none"
         id="path116"
         inkscape:connector-curvature="0" /></g><g
       id="g118"
       transform="translate(195.61304,9.9776943)"><path
         d="M 0,0 C 0.992,0 1.872,0.596 2.383,1.844 L 2.865,2.95 -1.957,13.814 c -0.171,0.426 -0.369,0.511 -0.767,0.511 l -0.424,0 0,3.064 2.382,0 c 1.021,0 1.532,-0.369 1.901,-1.362 L 3.971,8.793 C 4.255,8.056 4.481,6.865 4.481,6.865 l 0.057,0 c 0,0 0.228,1.191 0.483,1.928 l 2.467,7.234 c 0.341,0.993 0.937,1.362 1.929,1.362 l 2.439,0 0,-3.064 -0.424,0 c -0.426,0 -0.653,-0.085 -0.824,-0.511 L 5.418,0.738 c -1.022,-2.61 -3.064,-3.773 -5.22,-3.773 -2.269,0 -3.659,1.475 -3.659,1.475 l 1.39,2.553 C -2.071,0.993 -1.191,0 0,0"
         style="fill:#ff0000;fill-opacity:1;fill-rule:nonzero;stroke:none"
         id="path120"
         inkscape:connector-curvature="0" /></g><g
       id="g122"
       transform="translate(82.0821,44.185489)"><path
         d="m 0,0 c -0.402,-0.316 -1.035,-0.546 -4.168,-0.949 -1.236,-0.173 -3.22,-0.546 -3.22,-2.444 0,-1.638 0.833,-2.615 2.731,-2.615 2.357,0 4.657,1.523 4.657,3.535 z m -9.257,2.789 c 0.115,3.593 2.501,5.002 6.21,5.002 1.207,0 5.577,-0.346 5.577,-4.198 l 0,-8.653 c 0,-0.632 0.316,-0.891 0.833,-0.891 0.23,0 0.547,0.057 0.834,0.115 l 0,-1.84 c -0.431,-0.115 -0.805,-0.287 -1.38,-0.287 -2.242,0 -2.587,1.15 -2.673,2.299 -0.977,-1.063 -2.501,-2.443 -5.434,-2.443 -2.759,0 -4.714,1.753 -4.714,4.341 0,1.265 0.374,4.197 4.571,4.715 l 4.168,0.517 c 0.604,0.057 1.323,0.287 1.323,1.783 0,1.581 -1.15,2.443 -3.537,2.443 -2.874,0 -3.277,-1.754 -3.449,-2.903 z"
         style="fill:#525252;fill-opacity:1;fill-rule:nonzero;stroke:none"
         id="path124"
         inkscape:connector-curvature="0" /></g><path
       d="m 91.481,36.509689 -2.53,0 0,20.641 2.53,0 z"
       style="fill:#525252;fill-opacity:1;fill-rule:nonzero;stroke:none"
       id="path126"
       inkscape:connector-curvature="0" /><g
       id="g128"
       transform="translate(101.5416,49.705089)"><path
         d="m 0,0 c -3.651,0 -4.054,-3.938 -4.054,-6.382 0,-3.996 2.501,-5.06 4.111,-5.06 2.76,0 4.054,2.501 4.054,5.807 C 4.111,-3.708 3.91,0 0,0 m -6.468,-13.195 0,20.64 2.53,0 0,-7.503 0.057,0 c 1.092,1.581 2.587,2.3 4.341,2.329 3.996,0 6.267,-3.277 6.267,-7.503 0,-3.594 -1.495,-8.394 -6.612,-8.394 -2.559,0 -3.622,1.465 -4.14,2.299 l -0.058,0 0,-1.868 z"
         style="fill:#525252;fill-opacity:1;fill-rule:nonzero;stroke:none"
         id="path130"
         inkscape:connector-curvature="0" /></g><g
       id="g132"
       transform="translate(120.4264,44.185489)"><path
         d="m 0,0 c -0.402,-0.316 -1.035,-0.546 -4.168,-0.949 -1.236,-0.173 -3.22,-0.546 -3.22,-2.444 0,-1.638 0.833,-2.615 2.731,-2.615 2.357,0 4.657,1.523 4.657,3.535 z m -9.256,2.789 c 0.115,3.593 2.5,5.002 6.209,5.002 1.207,0 5.577,-0.346 5.577,-4.198 l 0,-8.653 c 0,-0.632 0.316,-0.891 0.833,-0.891 0.231,0 0.546,0.057 0.834,0.115 l 0,-1.84 c -0.431,-0.115 -0.804,-0.287 -1.38,-0.287 -2.242,0 -2.588,1.15 -2.673,2.299 -0.978,-1.063 -2.501,-2.443 -5.434,-2.443 -2.759,0 -4.713,1.753 -4.713,4.341 0,1.265 0.373,4.197 4.569,4.715 l 4.169,0.517 c 0.604,0.057 1.323,0.287 1.323,1.783 0,1.581 -1.151,2.443 -3.537,2.443 -2.875,0 -3.277,-1.754 -3.449,-2.903 z"
         style="fill:#525252;fill-opacity:1;fill-rule:nonzero;stroke:none"
         id="path134"
         inkscape:connector-curvature="0" /></g><path
       d="m 137.816,36.509689 -2.53,0 0,15.035 2.53,0 z m -2.53,20.641 2.53,0 0,-2.875 -2.53,0 z"
       style="fill:#525252;fill-opacity:1;fill-rule:nonzero;stroke:none"
       id="path136"
       inkscape:connector-curvature="0" /><g
       id="g138"
       transform="translate(151.4127,36.509789)"><path
         d="m 0,0 0,2.185 -0.058,0.057 c -1.063,-1.753 -2.357,-2.673 -4.772,-2.673 -2.214,0 -4.887,1.063 -4.887,4.657 l 0,10.809 2.53,0 0,-9.975 c 0,-2.473 1.264,-3.307 2.903,-3.307 3.191,0 4.139,2.818 4.139,5.003 l 0,8.279 2.531,0 0,-15.035 z"
         style="fill:#525252;fill-opacity:1;fill-rule:nonzero;stroke:none"
         id="path140"
         inkscape:connector-curvature="0" /></g><path
       d="m 160.178,36.509689 -2.53,0 0,20.641 2.53,0 z"
       style="fill:#525252;fill-opacity:1;fill-rule:nonzero;stroke:none"
       id="path142"
       inkscape:connector-curvature="0" /><path
       d="m 166.559,36.509689 -2.53,0 0,15.035 2.53,0 z m -2.53,20.641 2.53,0 0,-2.875 -2.53,0 z"
       style="fill:#525252;fill-opacity:1;fill-rule:nonzero;stroke:none"
       id="path144"
       inkscape:connector-curvature="0" /><g
       id="g146"
       transform="translate(179.5231,44.185489)"><path
         d="m 0,0 c -0.402,-0.316 -1.035,-0.546 -4.168,-0.949 -1.236,-0.173 -3.22,-0.546 -3.22,-2.444 0,-1.638 0.833,-2.615 2.731,-2.615 2.357,0 4.657,1.523 4.657,3.535 z m -9.257,2.789 c 0.115,3.593 2.501,5.002 6.21,5.002 1.207,0 5.576,-0.346 5.576,-4.198 l 0,-8.653 c 0,-0.632 0.317,-0.891 0.834,-0.891 0.231,0 0.547,0.057 0.834,0.115 l 0,-1.84 c -0.431,-0.115 -0.804,-0.287 -1.38,-0.287 -2.242,0 -2.587,1.15 -2.673,2.299 -0.978,-1.063 -2.501,-2.443 -5.433,-2.443 -2.76,0 -4.715,1.753 -4.715,4.341 0,1.265 0.373,4.197 4.57,4.715 l 4.169,0.517 c 0.604,0.057 1.323,0.287 1.323,1.783 0,1.581 -1.151,2.443 -3.537,2.443 -2.875,0 -3.277,-1.754 -3.449,-2.903 z"
         style="fill:#525252;fill-opacity:1;fill-rule:nonzero;stroke:none"
         id="path148"
         inkscape:connector-curvature="0" /></g></g></svg>