<?xml version="1.0" encoding="UTF-8" standalone="no"?>
<!-- Created with Inkscape (http://www.inkscape.org/) -->

<svg
   xmlns:dc="http://purl.org/dc/elements/1.1/"
   xmlns:cc="http://creativecommons.org/ns#"
   xmlns:rdf="http://www.w3.org/1999/02/22-rdf-syntax-ns#"
   xmlns:svg="http://www.w3.org/2000/svg"
   xmlns="http://www.w3.org/2000/svg"
   xmlns:sodipodi="http://sodipodi.sourceforge.net/DTD/sodipodi-0.dtd"
   xmlns:inkscape="http://www.inkscape.org/namespaces/inkscape"
   version="1.1"
   id="svg2"
   xml:space="preserve"
   width="79.693329"
   height="79.692001"
   viewBox="0 0 79.693329 79.692001"
   sodipodi:docname="logo_plain.svg"
   inkscape:version="0.92.2 (5c3e80d, 2017-08-06)"><metadata
     id="metadata8"><rdf:RDF><cc:Work
         rdf:about=""><dc:format>image/svg+xml</dc:format><dc:type
           rdf:resource="http://purl.org/dc/dcmitype/StillImage" /><dc:title></dc:title></cc:Work></rdf:RDF></metadata><defs
     id="defs6"><clipPath
       clipPathUnits="userSpaceOnUse"
       id="clipPath18"><path
         d="M 0,72.451 H 326.153 V 0 H 0 Z"
         id="path16"
         inkscape:connector-curvature="0" /></clipPath></defs><sodipodi:namedview
     pagecolor="#ffffff"
     bordercolor="#666666"
     borderopacity="1"
     objecttolerance="10"
     gridtolerance="10"
     guidetolerance="10"
     inkscape:pageopacity="0"
     inkscape:pageshadow="2"
     inkscape:window-width="1920"
     inkscape:window-height="1017"
     id="namedview4"
     showgrid="false"
     inkscape:zoom="4.6829269"
     inkscape:cx="-19.946084"
     inkscape:cy="53.070819"
     inkscape:window-x="-8"
     inkscape:window-y="-8"
     inkscape:window-maximized="1"
     inkscape:current-layer="g10"
     fit-margin-top="0"
     fit-margin-left="0"
     fit-margin-right="0"
     fit-margin-bottom="0" /><g
     id="g10"
     inkscape:groupmode="layer"
     inkscape:label="Vector Smart Object"
     transform="matrix(1.3333333,0,0,-1.3333333,-83.494251,90.795766)"><g
       id="g12"><path
         d="m 110.91899,46.967926 0.981,8.692 -8.397,0.948 c 1.11,-2.691 1.976,-6.417 1.976,-6.417 0,0 3.138,-1.58 5.44,-3.223 m -1.336,-17.299 7.105,4.54 -4.426,7.164 c -1.376,-2.527 -3.597,-5.432 -3.597,-5.432 0,0 0.733,-3.423 0.918,-6.272 m -14.117,-9.847 7.808,-2.816 2.712,7.996 c -2.768,-0.455 -6.242,-0.488 -6.242,-0.488 0,0 -2.198,-2.764 -4.278,-4.692 m -16.426,5.206 2.723,-8.022 7.908,2.853 c -2.065,1.928 -4.237,4.655 -4.237,4.655 0,0 -3.6,0.033 -6.394,0.514 m -6.187,16.467 -4.504,-7.286 7.238,-4.626 c 0.178,2.865 0.926,6.358 0.926,6.358 0,0 -2.295,2.997 -3.66,5.554 m 8.829,15.127 -8.544,-0.962 0.988,-8.785 c 2.316,1.677 5.573,3.316 5.573,3.316 0,0 0.869,3.745 1.983,6.431 m 10.839,8.585 -6.084,-6.25 c 2.749,-0.792 6.154,-2.423 6.154,-2.423 0,0 3.308,1.591 6.039,2.39 z"
         style="fill:#6f5c4c;fill-opacity:1;fill-rule:evenodd;stroke:none"
         id="path22"
         inkscape:connector-curvature="0" /><path
         d="m 109.20569,57.887826 -3.53,10.209 -9.829,-3.626 c 2.661,-2.368 5.607,-6.028 5.607,-6.028 0,0 4.322,-0.011 7.752,-0.555 m 7.708,-19.979 5.477,9.004 -8.722,5.502 c -0.182,-3.578 -1.11,-8.045 -1.11,-8.045 0,0 2.634,-3.4 4.355,-6.461 m -10.45,-18.813 10.169,1.214 -1.236,10.406 c -2.835,-2.05 -6.676,-4.023 -6.676,-4.023 0,0 -0.977,-4.296 -2.257,-7.597 m -21.011,-3.363 7.286,-7.405 7.268,7.579 c -3.316,0.991 -7.179,2.816 -7.179,2.816 0,0 -4.019,-1.969 -7.375,-2.99 m -15.623,14.861 -1.129,-10.609 10.495,-1.111 c -1.321,3.283 -2.35,7.586 -2.35,7.586 0,0 -4.141,2.054 -7.016,4.134 m 1.772,21.743 -8.981,-5.831 5.766,-9.218 c 1.68,3.153 4.425,6.79 4.425,6.79 0,0 -1.017,4.648 -1.21,8.259 m 7.475,15.579 -3.434,-10.339 c 3.475,0.655 8.119,0.737 8.119,0.737 0,0 2.834,3.611 5.443,6.02 z"
         style="fill:#ff0000;fill-opacity:1;fill-rule:evenodd;stroke:none"
         id="path26"
         inkscape:connector-curvature="0" /><g
         transform="translate(102.34879,50.623926)"
         id="g28"><path
           inkscape:connector-curvature="0"
           id="path30"
           style="fill:#ff9a00;fill-opacity:1;fill-rule:evenodd;stroke:none"
           d="M 0,0 -2.083,6.039 -7.889,3.893 C -6.32,2.49 -4.581,0.326 -4.581,0.326 -4.581,0.326 -2.028,0.322 0,0 m 4.552,-11.815 3.234,5.324 -5.151,3.253 C 2.527,-5.355 1.98,-7.997 1.98,-7.997 c 0,0 1.554,-2.009 2.572,-3.818 m -6.173,-11.128 6.006,0.718 -0.729,6.154 c -1.673,-1.21 -3.945,-2.379 -3.945,-2.379 0,0 -0.573,-2.542 -1.332,-4.493 m -12.407,-1.99 4.303,-4.378 4.293,4.481 c -1.961,0.589 -4.241,1.665 -4.241,1.665 0,0 -2.376,-1.162 -4.355,-1.768 m -9.229,8.792 -0.666,-6.276 6.198,-0.659 c -0.781,1.943 -1.388,4.489 -1.388,4.489 0,0 -2.442,1.214 -4.144,2.446 m 1.047,12.855 -5.303,-3.445 3.405,-5.454 c 0.991,1.865 2.616,4.018 2.616,4.018 0,0 -0.603,2.746 -0.718,4.881 m 4.415,9.218 -2.028,-6.117 c 2.054,0.389 4.796,0.433 4.796,0.433 0,0 1.672,2.139 3.215,3.563 z" /></g></g></g></svg>