<svg xmlns="http://www.w3.org/2000/svg" viewBox="0 0 246.2 246.2"><title>Asset 1</title><g id="Layer_2" data-name="Layer 2"><g id="Layer_1-2" data-name="Layer 1"><path d="M186.8,68.1h52.5c5.8.1,6.9,1.1,6.9,6.6v165c0,3.9-1.2,6.5-5.6,6.5-22.8,0-45.7,0-68.5-.1a9.21,9.21,0,0,1-2-.5V202.4c0-6.1-1-7.1-7.3-7.2-9.3-.1-18.7,0-28,0-6.3,0-7,.7-7,6.8v43.9c-2,.1-3.6.3-5.2.3H8.1c-7.1,0-8.1-.9-8.1-8.1V142.6c0-6.1.8-6.8,7-6.8H110.7V9c0-9,0-9,9.2-9h59c6.8,0,7.9,1,7.9,7.7Zm-85,84.3H17.4v8.1h84.4Zm-84.4,25h84.3v-8H17.4Zm0,17h84.4v-7.9H17.4Zm84.5,8.8H17.5v7.5h84.4ZM17.3,227.8h84.5v-7.7H17.3Zm211.6-75.4H195.5v8h33.4Zm-33.5-26h33.3v-7.9H195.4Zm0-34h33.3v-8H195.4Zm33.5,43H195.5v8.1h33.4Zm0,34.2H195.4v7.9h33.5Zm-33.5,24.8h33.5v-7.9H195.4Zm-.1-85.1h33.5v-7.8H195.3ZM169.5,67.4H153.2V83.8h16.3Zm-42.1,67.4h16.3V118.4H127.4Zm42,0V118.4H153.1v16.4ZM127.5,144v16.5h16.3V144Zm0-76.8V83.7h16.2V67.2Zm-.1,118.6h16.2V169.5H127.4Zm41.9.2V169.5H153.2V186Zm.3-41.8H153.1v16.2h16.5ZM143.8,58.4V42.6H127.5V58.4ZM153,33.3h16.4V17H153ZM127.3,16.9V33.3h16.5V16.9Zm.1,92.5h16.3V93.1H127.4Zm25.7-67V58.7c4.8,0,9.2.1,13.7-.1,1-.1,2.7-1.5,2.8-2.4.3-4.6.1-9.1.1-13.8Zm16.4,50.7H153v16.2h16.5Zm59.4,110.1H195.6v7.7h33.3Zm-33.5,24.5h33.4v-7.6H195.4Zm-34-23.5h-25V246h25ZM73.8,8.6c2,.1,4,.3,6,.3,3.2,0,6.1,1.1,5.9,4.6-.2,3.9-3.4,3.8-6.7,4-7.6.5-15.4.7-22.7,2.6A64.66,64.66,0,0,0,9.2,76.3c-.3,3.1-1,5.5-4.4,5.3-3.9-.2-4-3.2-3.7-6.3C3.9,43.7,28.8,16.1,59.9,10.1c4.6-.9,9.2-1.2,13.8-1.8C73.7,8.4,73.8,8.5,73.8,8.6ZM84.4,31.1c.1-1.3-1.7-3.7-3.1-4.1a32.94,32.94,0,0,0-9.4-.8C45,27.3,21.8,48.6,18.3,75.3c-.4,3.1-.2,6.1,3.5,6.6s4.7-2.2,5.1-5.3c1.7-13.8,8.3-24.8,19.4-33,10.1-7.4,21.4-10.3,35.2-8.7C82.2,34.1,84.2,32.7,84.4,31.1ZM82.9,47.9c-.1-5.1-4.7-4.4-8-4.4-19.3-.4-36.4,14.6-39.1,34.3-.4,3.1-.7,6,3.1,6.6s4.5-2.3,4.9-5.4c2.1-16.1,14.9-27,31.7-27C78.3,51.7,83,53.4,82.9,47.9ZM53.2,80.2c-.1,1.9,1.7,5,3.3,5.5,2.8,1,4.2-1.3,4.7-4.3,1.3-7.7,5.2-11.1,13.1-11.7,3.1-.2,6.3-.9,5.5-4.6-.4-2-3.3-3.4-4-4.1C63,61,53.9,69.2,53.2,80.2Z"/></g></g></svg>